<svg class="svg-icon" style="width: 1em; height: 1em;vertical-align: middle;fill: currentColor;overflow: hidden;" viewBox="0 0 1024 1024" version="1.1" xmlns="http://www.w3.org/2000/svg"><path d="M601.2928 891.51488l317.7472-317.76768 60.928 60.928L604.50816 1010.11456l-3.66592-3.64544-3.21536 3.19488L383.34464 795.40224l60.90752-60.928L601.2928 891.51488 601.2928 891.51488zM44.032 13.86496l71.7824 0 0 933.21216L44.032 947.07712 44.032 13.86496 44.032 13.86496zM833.67936 13.86496l71.7824 0 0 502.49728-71.7824 0L833.67936 13.86496 833.67936 13.86496zM115.83488 13.86496l717.84448 0 0 71.80288L115.83488 85.66784 115.83488 13.86496 115.83488 13.86496zM115.83488 875.27424l287.1296 0 0 71.80288L115.83488 947.07712 115.83488 875.27424 115.83488 875.27424zM259.39968 301.03552l430.6944 0 0 71.76192-430.6944 0L259.39968 301.03552 259.39968 301.03552zM259.39968 444.57984l430.6944 0 0 71.7824-430.6944 0L259.39968 444.57984 259.39968 444.57984zM259.39968 588.16512l430.6944 0 0 71.80288-430.6944 0L259.39968 588.16512 259.39968 588.16512zM259.39968 588.16512"  /></svg>